<?xml version="1.0" encoding="UTF-8"?>
<svg xmlns="http://www.w3.org/2000/svg" xmlns:xlink="http://www.w3.org/1999/xlink" width="808.55pt" height="84.58pt" viewBox="0 0 808.55 84.58" version="1.1">
<defs>
<clipPath id="clip1">
  <path d="M 0 4 L 61 4 L 61 84.578125 L 0 84.578125 Z M 0 4 "/>
</clipPath>
<clipPath id="clip2">
  <path d="M 134 24 L 189 24 L 189 84.578125 L 134 84.578125 Z M 134 24 "/>
</clipPath>
<clipPath id="clip3">
  <path d="M 196 24 L 240 24 L 240 84.578125 L 196 84.578125 Z M 196 24 "/>
</clipPath>
<clipPath id="clip4">
  <path d="M 307 24 L 359 24 L 359 84.578125 L 307 84.578125 Z M 307 24 "/>
</clipPath>
<clipPath id="clip5">
  <path d="M 362 9 L 403 9 L 403 84.578125 L 362 84.578125 Z M 362 9 "/>
</clipPath>
<clipPath id="clip6">
  <path d="M 443 24 L 496 24 L 496 84.578125 L 443 84.578125 Z M 443 24 "/>
</clipPath>
<clipPath id="clip7">
  <path d="M 504 0 L 561 0 L 561 84.578125 L 504 84.578125 Z M 504 0 "/>
</clipPath>
<clipPath id="clip8">
  <path d="M 571 24 L 626 24 L 626 84.578125 L 571 84.578125 Z M 571 24 "/>
</clipPath>
<clipPath id="clip9">
  <path d="M 630 66 L 649 66 L 649 84.578125 L 630 84.578125 Z M 630 66 "/>
</clipPath>
<clipPath id="clip10">
  <path d="M 652 36 L 687 36 L 687 84.578125 L 652 84.578125 Z M 652 36 "/>
</clipPath>
<clipPath id="clip11">
  <path d="M 687 36 L 736 36 L 736 84.578125 L 687 84.578125 Z M 687 36 "/>
</clipPath>
<clipPath id="clip12">
  <path d="M 741 36 L 808.550781 36 L 808.550781 84 L 741 84 Z M 741 36 "/>
</clipPath>
</defs>
<g id="surface1">
<g clip-path="url(#clip1)" clip-rule="nonzero">
<path style=" stroke:none;fill-rule:nonzero;fill:rgb(92.89856%,10.998535%,14.099121%);fill-opacity:1;" d="M 60.15625 82.136719 C 54.496094 83.46875 48.394531 84.578125 42.511719 84.578125 C 17.425781 84.578125 0 72.039063 0 45.84375 C 0 19.316406 16.203125 4.445313 42.511719 4.445313 C 47.617188 4.445313 54.386719 5.441406 60.046875 7.664063 L 58.9375 20.757813 C 53.054688 17.429688 47.726563 16.652344 42.175781 16.652344 C 26.195313 16.652344 16.203125 28.863281 16.203125 44.734375 C 16.203125 60.496094 25.972656 72.371094 42.511719 72.371094 C 48.613281 72.371094 55.828125 71.039063 59.492188 69.152344 L 60.15625 82.136719 "/>
</g>
<path style=" stroke:none;fill-rule:nonzero;fill:rgb(92.89856%,10.998535%,14.099121%);fill-opacity:1;" d="M 70.261719 0.00390625 L 85.136719 0.00390625 L 85.136719 33.855469 L 85.355469 33.855469 C 89.132813 28.308594 95.570313 24.753906 103.339844 24.753906 C 116.878906 24.753906 122.761719 34.300781 122.761719 47.175781 L 122.761719 83.246094 L 107.890625 83.246094 L 107.890625 52.726563 C 107.890625 45.734375 107.777344 36.296875 98.230469 36.296875 C 87.464844 36.296875 85.136719 47.953125 85.136719 55.277344 L 85.136719 83.246094 L 70.261719 83.246094 L 70.261719 0.00390625 "/>
<g clip-path="url(#clip2)" clip-rule="nonzero">
<path style=" stroke:none;fill-rule:nonzero;fill:rgb(92.89856%,10.998535%,14.099121%);fill-opacity:1;" d="M 173.933594 49.0625 C 173.488281 41.847656 170.160156 35.632813 161.835938 35.632813 C 153.511719 35.632813 149.292969 41.402344 148.625 49.0625 Z M 183.921875 80.027344 C 178.484375 83.027344 172.269531 84.578125 164.277344 84.578125 C 145.40625 84.578125 134.417969 73.703125 134.417969 54.945313 C 134.417969 38.40625 143.1875 24.753906 160.945313 24.753906 C 182.144531 24.753906 188.140625 39.296875 188.140625 59.273438 L 148.625 59.273438 C 149.292969 68.484375 155.730469 73.703125 164.941406 73.703125 C 172.15625 73.703125 178.371094 71.039063 183.921875 67.929688 L 183.921875 80.027344 "/>
</g>
<g clip-path="url(#clip3)" clip-rule="nonzero">
<path style=" stroke:none;fill-rule:nonzero;fill:rgb(92.89856%,10.998535%,14.099121%);fill-opacity:1;" d="M 236.871094 38.40625 C 234.207031 37.1875 231.320313 36.296875 226.769531 36.296875 C 217.558594 36.296875 211.675781 43.625 211.675781 54.390625 C 211.675781 64.933594 216.667969 73.035156 227.101563 73.035156 C 231.320313 73.035156 235.980469 71.484375 238.535156 70.375 L 239.199219 82.691406 C 234.871094 84.023438 230.433594 84.578125 224.328125 84.578125 C 205.570313 84.578125 196.136719 71.816406 196.136719 54.390625 C 196.136719 37.851563 205.902344 24.753906 223.773438 24.753906 C 229.765625 24.753906 234.09375 25.421875 238.203125 26.640625 L 236.871094 38.40625 "/>
</g>
<path style=" stroke:none;fill-rule:nonzero;fill:rgb(92.89856%,10.998535%,14.099121%);fill-opacity:1;" d="M 249.414063 0.00390625 L 264.285156 0.00390625 L 264.285156 48.953125 L 264.507813 48.953125 L 282.265625 26.085938 L 299.804688 26.085938 L 278.492188 51.617188 L 302.46875 83.246094 L 283.597656 83.246094 L 264.507813 55.5 L 264.285156 55.5 L 264.285156 83.246094 L 249.414063 83.246094 L 249.414063 0.00390625 "/>
<g clip-path="url(#clip4)" clip-rule="nonzero">
<path style=" stroke:none;fill-rule:nonzero;fill:rgb(92.89856%,10.998535%,14.099121%);fill-opacity:1;" d="M 330.773438 73.703125 C 335.324219 73.703125 338.878906 71.707031 341.207031 68.597656 C 343.648438 65.378906 344.316406 61.273438 344.316406 56.832031 L 337.878906 56.832031 C 331.21875 56.832031 321.339844 57.941406 321.339844 66.710938 C 321.339844 71.59375 325.445313 73.703125 330.773438 73.703125 Z M 313.347656 29.085938 C 319.121094 26.421875 326.890625 24.753906 333.21875 24.753906 C 350.644531 24.753906 357.855469 31.96875 357.855469 48.839844 L 357.855469 56.167969 C 357.855469 61.9375 357.96875 66.265625 358.078125 70.484375 C 358.191406 74.8125 358.410156 78.808594 358.746094 83.246094 L 345.648438 83.246094 C 345.09375 80.25 345.09375 76.476563 344.980469 74.703125 L 344.761719 74.703125 C 341.320313 81.027344 333.882813 84.578125 327.113281 84.578125 C 317.011719 84.578125 307.132813 78.476563 307.132813 67.597656 C 307.132813 59.050781 311.238281 54.058594 316.902344 51.28125 C 322.5625 48.507813 329.886719 47.953125 336.101563 47.953125 L 344.316406 47.953125 C 344.316406 38.742188 340.210938 35.632813 331.441406 35.632813 C 325.113281 35.632813 318.789063 38.074219 313.792969 41.847656 L 313.347656 29.085938 "/>
</g>
<g clip-path="url(#clip5)" clip-rule="nonzero">
<path style=" stroke:none;fill-rule:nonzero;fill:rgb(2.69928%,30.599976%,63.499451%);fill-opacity:1;" d="M 373.621094 36.964844 L 362.632813 36.964844 L 362.632813 26.085938 L 373.621094 26.085938 L 373.621094 14.65625 L 388.496094 9.882813 L 388.496094 26.085938 L 401.703125 26.085938 L 401.703125 36.964844 L 388.496094 36.964844 L 388.496094 63.601563 C 388.496094 68.484375 389.828125 73.035156 395.488281 73.035156 C 398.152344 73.035156 400.703125 72.480469 402.257813 71.484375 L 402.703125 83.246094 C 399.59375 84.136719 396.152344 84.578125 391.714844 84.578125 C 380.058594 84.578125 373.621094 77.363281 373.621094 66.042969 L 373.621094 36.964844 "/>
</g>
<path style=" stroke:none;fill-rule:nonzero;fill:rgb(2.69928%,30.599976%,63.499451%);fill-opacity:1;" d="M 408.476563 26.085938 L 421.683594 26.085938 L 421.683594 39.074219 L 421.902344 39.074219 C 422.570313 33.746094 428.675781 24.753906 437.554688 24.753906 C 438.996094 24.753906 440.550781 24.753906 442.105469 25.199219 L 442.105469 40.183594 C 440.773438 39.40625 438.109375 38.960938 435.445313 38.960938 C 423.347656 38.960938 423.347656 54.058594 423.347656 62.269531 L 423.347656 83.246094 L 408.476563 83.246094 L 408.476563 26.085938 "/>
<g clip-path="url(#clip6)" clip-rule="nonzero">
<path style=" stroke:none;fill-rule:nonzero;fill:rgb(2.69928%,30.599976%,63.499451%);fill-opacity:1;" d="M 467.523438 73.703125 C 472.074219 73.703125 475.628906 71.707031 477.957031 68.597656 C 480.398438 65.378906 481.0625 61.273438 481.0625 56.832031 L 474.628906 56.832031 C 467.96875 56.832031 458.089844 57.941406 458.089844 66.710938 C 458.089844 71.59375 462.195313 73.703125 467.523438 73.703125 Z M 450.097656 29.085938 C 455.867188 26.421875 463.640625 24.753906 469.96875 24.753906 C 487.394531 24.753906 494.605469 31.96875 494.605469 48.839844 L 494.605469 56.167969 C 494.605469 61.9375 494.71875 66.265625 494.828125 70.484375 C 494.9375 74.8125 495.160156 78.808594 495.492188 83.246094 L 482.394531 83.246094 C 481.84375 80.25 481.84375 76.476563 481.730469 74.703125 L 481.511719 74.703125 C 478.066406 81.027344 470.632813 84.578125 463.859375 84.578125 C 453.761719 84.578125 443.882813 78.476563 443.882813 67.597656 C 443.882813 59.050781 447.988281 54.058594 453.648438 51.28125 C 459.3125 48.507813 466.636719 47.953125 472.851563 47.953125 L 481.0625 47.953125 C 481.0625 38.742188 476.960938 35.632813 468.1875 35.632813 C 461.863281 35.632813 455.535156 38.074219 450.542969 41.847656 L 450.097656 29.085938 "/>
</g>
<g clip-path="url(#clip7)" clip-rule="nonzero">
<path style=" stroke:none;fill-rule:nonzero;fill:rgb(2.69928%,30.599976%,63.499451%);fill-opacity:1;" d="M 532.683594 73.035156 C 542.5625 73.035156 545.777344 62.605469 545.777344 54.5 C 545.777344 46.511719 542.007813 36.296875 532.460938 36.296875 C 522.804688 36.296875 520.140625 46.84375 520.140625 54.5 C 520.140625 62.382813 522.914063 73.035156 532.683594 73.035156 Z M 546.335938 76.808594 L 546.109375 76.808594 C 541.671875 82.359375 535.566406 84.578125 528.574219 84.578125 C 511.039063 84.578125 504.601563 70.152344 504.601563 54.5 C 504.601563 38.742188 511.039063 24.753906 528.574219 24.753906 C 536.011719 24.753906 541.230469 27.308594 545.667969 32.746094 L 545.890625 32.746094 L 545.890625 0.00390625 L 560.765625 0.00390625 L 560.765625 83.246094 L 546.335938 83.246094 L 546.335938 76.808594 "/>
</g>
<g clip-path="url(#clip8)" clip-rule="nonzero">
<path style=" stroke:none;fill-rule:nonzero;fill:rgb(2.69928%,30.599976%,63.499451%);fill-opacity:1;" d="M 610.933594 49.0625 C 610.488281 41.847656 607.160156 35.632813 598.835938 35.632813 C 590.511719 35.632813 586.296875 41.402344 585.628906 49.0625 Z M 620.925781 80.027344 C 615.484375 83.027344 609.269531 84.578125 601.277344 84.578125 C 582.410156 84.578125 571.421875 73.703125 571.421875 54.945313 C 571.421875 38.40625 580.1875 24.753906 597.945313 24.753906 C 619.148438 24.753906 625.140625 39.296875 625.140625 59.273438 L 585.628906 59.273438 C 586.296875 68.484375 592.730469 73.703125 601.941406 73.703125 C 609.15625 73.703125 615.371094 71.039063 620.925781 67.929688 L 620.925781 80.027344 "/>
</g>
<g clip-path="url(#clip9)" clip-rule="nonzero">
<path style=" stroke:none;fill-rule:nonzero;fill:rgb(2.69928%,30.599976%,63.499451%);fill-opacity:1;" d="M 630.867188 75.355469 C 630.867188 72.957031 631.730469 70.894531 633.453125 69.167969 C 635.183594 67.441406 637.242188 66.578125 639.644531 66.578125 C 642.078125 66.578125 644.15625 67.441406 645.882813 69.167969 C 647.609375 70.894531 648.472656 72.957031 648.472656 75.355469 C 648.472656 77.789063 647.609375 79.863281 645.882813 81.570313 C 644.15625 83.28125 642.078125 84.136719 639.644531 84.136719 C 637.242188 84.136719 635.183594 83.28125 633.453125 81.570313 C 631.730469 79.863281 630.867188 77.789063 630.867188 75.355469 "/>
</g>
<g clip-path="url(#clip10)" clip-rule="nonzero">
<path style=" stroke:none;fill-rule:nonzero;fill:rgb(2.69928%,30.599976%,63.499451%);fill-opacity:1;" d="M 684.929688 47.289063 C 682.792969 46.3125 680.480469 45.597656 676.828125 45.597656 C 669.441406 45.597656 664.726563 51.472656 664.726563 60.105469 C 664.726563 68.5625 668.730469 75.058594 677.097656 75.058594 C 680.480469 75.058594 684.21875 73.8125 686.265625 72.921875 L 686.800781 82.800781 C 683.328125 83.871094 679.769531 84.316406 674.871094 84.316406 C 659.828125 84.316406 652.265625 74.082031 652.265625 60.105469 C 652.265625 46.84375 660.097656 36.34375 674.429688 36.34375 C 679.234375 36.34375 682.703125 36.875 685.996094 37.855469 L 684.929688 47.289063 "/>
</g>
<g clip-path="url(#clip11)" clip-rule="nonzero">
<path style=" stroke:none;fill-rule:nonzero;fill:rgb(2.69928%,30.599976%,63.499451%);fill-opacity:1;" d="M 711.894531 75.058594 C 721.0625 75.058594 723.464844 66.871094 723.464844 59.21875 C 723.464844 52.1875 719.726563 45.597656 711.894531 45.597656 C 704.152344 45.597656 700.414063 52.363281 700.414063 59.21875 C 700.414063 66.78125 702.816406 75.058594 711.894531 75.058594 Z M 711.894531 36.34375 C 725.511719 36.34375 735.925781 45.511719 735.925781 60.640625 C 735.925781 73.8125 727.113281 84.316406 711.894531 84.316406 C 696.765625 84.316406 687.953125 73.8125 687.953125 60.640625 C 687.953125 45.511719 698.367188 36.34375 711.894531 36.34375 "/>
</g>
<g clip-path="url(#clip12)" clip-rule="nonzero">
<path style=" stroke:none;fill-rule:nonzero;fill:rgb(2.69928%,30.599976%,63.499451%);fill-opacity:1;" d="M 741.265625 37.410156 L 752.390625 37.410156 L 752.390625 43.820313 L 752.566406 43.820313 C 756.304688 38.210938 761.734375 36.34375 766.1875 36.34375 C 772.59375 36.34375 777.132813 38.746094 779.714844 44.441406 C 782.472656 38.925781 788.4375 36.34375 794.042969 36.34375 C 805.347656 36.34375 808.550781 44.085938 808.550781 54.320313 L 808.550781 83.246094 L 796.625 83.246094 L 796.625 55.925781 C 796.625 51.652344 796.625 45.597656 789.769531 45.597656 C 781.851563 45.597656 780.871094 55.035156 780.871094 60.996094 L 780.871094 83.246094 L 768.941406 83.246094 L 768.941406 55.925781 C 768.941406 51.652344 768.941406 45.597656 762.089844 45.597656 C 754.171875 45.597656 753.1875 55.035156 753.1875 60.996094 L 753.1875 83.246094 L 741.265625 83.246094 L 741.265625 37.410156 "/>
</g>
<path style=" stroke:none;fill-rule:nonzero;fill:rgb(2.69928%,30.599976%,63.499451%);fill-opacity:1;" d="M 284.601563 10.035156 L 286.265625 12.542969 C 278.753906 17.382813 270.289063 24.992188 260.875 35.367188 C 251.460938 45.742188 244.183594 55.507813 239.042969 64.667969 L 235.160156 66.90625 C 231.9375 68.816406 229.742188 70.246094 228.574219 71.191406 C 228.207031 69.652344 227.363281 67.121094 226.039063 63.597656 L 224.769531 60.382813 C 222.953125 55.761719 221.226563 52.332031 219.585938 50.082031 C 217.945313 47.835938 216.054688 46.304688 213.921875 45.488281 C 217.765625 41.988281 221.210938 40.316406 224.265625 40.464844 C 226.875 40.589844 229.609375 44.105469 232.46875 51.003906 L 233.878906 54.46875 C 240.0625 45.554688 247.859375 36.976563 257.269531 28.738281 C 266.683594 20.496094 275.796875 14.261719 284.601563 10.035156 "/>
<path style=" stroke:none;fill-rule:nonzero;fill:rgb(100%,100%,100%);fill-opacity:1;" d="M 214.839844 45.335938 C 216.757813 46.238281 218.488281 47.734375 219.988281 49.789063 C 221.648438 52.0625 223.414063 55.5625 225.234375 60.199219 L 226.503906 63.414063 C 227.636719 66.433594 228.429688 68.753906 228.867188 70.335938 C 230.144531 69.394531 232.167969 68.097656 234.902344 66.476563 L 238.671875 64.304688 C 243.804688 55.1875 251.148438 45.335938 260.503906 35.03125 C 269.722656 24.867188 278.152344 17.257813 285.570313 12.398438 L 284.429688 10.675781 C 275.816406 14.863281 266.796875 21.0625 257.601563 29.113281 C 248.261719 37.289063 240.421875 45.914063 234.289063 54.753906 L 233.765625 55.515625 L 232.003906 51.195313 C 229.242188 44.523438 226.628906 41.082031 224.238281 40.964844 C 221.496094 40.828125 218.332031 42.300781 214.839844 45.335938 Z M 228.269531 72.078125 L 228.085938 71.308594 C 227.726563 69.792969 226.878906 67.257813 225.570313 63.773438 L 224.304688 60.566406 C 222.511719 56.007813 220.789063 52.582031 219.183594 50.378906 C 217.605469 48.21875 215.773438 46.730469 213.742188 45.957031 L 212.980469 45.664063 L 213.582031 45.117188 C 217.511719 41.542969 221.109375 39.816406 224.289063 39.964844 C 227.136719 40.105469 229.964844 43.652344 232.929688 50.8125 L 233.996094 53.429688 C 240.09375 44.789063 247.808594 36.355469 256.941406 28.359375 C 266.34375 20.128906 275.578125 13.8125 284.386719 9.585938 L 284.777344 9.398438 L 286.960938 12.6875 L 286.535156 12.964844 C 279.09375 17.761719 270.582031 25.410156 261.242188 35.703125 C 251.898438 46 244.574219 55.828125 239.476563 64.914063 L 239.410156 65.035156 L 235.40625 67.339844 C 232.234375 69.222656 230.039063 70.652344 228.886719 71.582031 L 228.269531 72.078125 "/>
</g>
</svg>
